HIERARCHY
ROOT joint_Root
{
	OFFSET 0.0 0.0 0.0
	CHANNELS 6 Xposition Yposition Zposition Zrotation Xrotation Yrotation 
	JOINT Hips
	{
		OFFSET -0.726466 93.3139 -2.00062
		CHANNELS 6 Xposition Yposition Zposition Zrotation Xrotation Yrotation 
		JOINT Spine
		{
			OFFSET 15.7357 0.0 0.0
			CHANNELS 6 Xposition Yposition Zposition Zrotation Xrotation Yrotation 
			JOINT Chest
			{
				OFFSET 8.98455 -0.406207 0.0
				CHANNELS 6 Xposition Yposition Zposition Zrotation Xrotation Yrotation 
				JOINT Neck
				{
					OFFSET 16.3773 0.0 0.0
					CHANNELS 6 Xposition Yposition Zposition Zrotation Xrotation Yrotation 
					JOINT Head
					{
						OFFSET 6.45672 0.0 0.0
						CHANNELS 6 Xposition Yposition Zposition Zrotation Xrotation Yrotation 
						End Site
						{
							OFFSET 0.0 0.0 0.0
						}
					}
				}
				JOINT Shoulder_L
				{
					OFFSET 12.9942 -0.242716 4.98039
					CHANNELS 6 Xposition Yposition Zposition Zrotation Xrotation Yrotation 
					JOINT UpperArm_L
					{
						OFFSET 5.34809 0.0 0.0
						CHANNELS 6 Xposition Yposition Zposition Zrotation Xrotation Yrotation 
						JOINT LowerArm_L
						{
							OFFSET 24.3286 1.87007e-05 0.0
							CHANNELS 6 Xposition Yposition Zposition Zrotation Xrotation Yrotation 
							JOINT Hand_L
							{
								OFFSET 22.2916 0.0 0.0
								CHANNELS 6 Xposition Yposition Zposition Zrotation Xrotation Yrotation 
								End Site
								{
									OFFSET 0.0 0.0 0.0
								}
							}
						}
					}
				}
				JOINT Shoulder_R
				{
					OFFSET 12.9945 -0.242716 -4.98039
					CHANNELS 6 Xposition Yposition Zposition Zrotation Xrotation Yrotation 
					JOINT UpperArm_R
					{
						OFFSET -5.34813 0.0 0.0
						CHANNELS 6 Xposition Yposition Zposition Zrotation Xrotation Yrotation 
						JOINT LowerArm_R
						{
							OFFSET -24.3289 0.000322201 0.0
							CHANNELS 6 Xposition Yposition Zposition Zrotation Xrotation Yrotation 
							JOINT Hand_R
							{
								OFFSET -22.2915 -0.000108084 0.0
								CHANNELS 6 Xposition Yposition Zposition Zrotation Xrotation Yrotation 
								End Site
								{
									OFFSET 0.0 0.0 0.0
								}
							}
						}
					}
				}
			}
		}
		JOINT UpperLeg_L
		{
			OFFSET -2.19248 -6.46944 0.0
			CHANNELS 6 Xposition Yposition Zposition Zrotation Xrotation Yrotation 
			JOINT LowerLeg_L
			{
				OFFSET 39.0811 0.0 -1.23785e-05
				CHANNELS 6 Xposition Yposition Zposition Zrotation Xrotation Yrotation 
				JOINT Foot_L
				{
					OFFSET 40.9854 0.0 -1.26872e-05
					CHANNELS 6 Xposition Yposition Zposition Zrotation Xrotation Yrotation 
					JOINT Toes_L
					{
						OFFSET 11.7543 0.0 0.0
						CHANNELS 6 Xposition Yposition Zposition Zrotation Xrotation Yrotation 
						End Site
						{
							OFFSET 0.0 0.0 0.0
						}
					}
				}
			}
		}
		JOINT UpperLeg_R
		{
			OFFSET -2.19251 6.46944 0.0
			CHANNELS 6 Xposition Yposition Zposition Zrotation Xrotation Yrotation 
			JOINT LowerLeg_R
			{
				OFFSET -39.0811 -0.00228153 -0.0401928
				CHANNELS 6 Xposition Yposition Zposition Zrotation Xrotation Yrotation 
				JOINT Foot_R
				{
					OFFSET -40.9854 0.0 0.0
					CHANNELS 6 Xposition Yposition Zposition Zrotation Xrotation Yrotation 
					JOINT Toes_R
					{
						OFFSET -11.7543 0.0 0.0
						CHANNELS 6 Xposition Yposition Zposition Zrotation Xrotation Yrotation 
						End Site
						{
							OFFSET 0.0 0.0 0.0
						}
					}
				}
			}
		}
	}
}
MOTION
Frames:	8
Frame Time:	0.0333333
0.000000 0.000000 0.000000 0.000000 0.000000 -0.000000 -0.700147 92.475100 -1.731540 88.069000 -0.262084 4.072700 15.735700 0.000005 -0.000001 85.414100 86.601800 -85.058500 8.984550 -0.406207 -0.000000 -0.989442 -0.570455 0.705904 16.377300 -0.000001 -0.000001 5.077270 -2.433650 0.682067 6.456720 -0.000001 -0.000000 3.937120 -1.515380 0.405703 12.994200 -0.242716 4.980390 -86.847600 -10.713200 -73.496900 5.348090 -0.000007 -0.000001 -88.383500 -29.598300 -96.859700 24.328600 0.000019 0.000005 20.707600 -0.183296 -90.484900 22.291600 -0.000001 0.000005 22.755400 5.549670 -8.690690 12.994500 -0.242716 -4.980390 91.035000 -3.376830 -72.949100 -5.348130 -0.000001 -0.000004 -79.702300 -26.289900 -104.187000 -24.328900 0.000322 -0.000009 24.419900 3.085690 -83.239600 -22.291500 -0.000108 -0.000004 26.030200 5.365850 -1.858630 -2.192480 -6.469440 -0.000000 -175.592000 -6.258340 -3.132980 39.081100 -0.000007 -0.000012 -0.096973 0.237190 22.236800 40.985400 -0.000006 -0.000013 -0.146475 3.769470 -65.273000 11.754300 -0.000000 0.000003 -0.000034 -0.000408 -16.593500 -2.192510 6.469440 -0.000001 179.847000 13.226600 179.195000 -39.081100 -0.002282 -0.040193 -0.028203 0.091477 19.015500 -40.985400 0.000008 0.000006 3.319740 6.978860 -64.648200 -11.754300 -0.000006 -0.000006 -0.008040 -0.088355 -20.171000
0.000000 0.000000 0.000000 0.000000 0.000000 -0.000000 -0.692557 92.474600 -1.721960 88.125800 -0.244100 4.074410 15.735700 0.000005 -0.000001 85.743500 86.590100 -85.410400 8.984550 -0.406207 -0.000000 -0.963450 -0.531438 0.661386 16.377300 -0.000001 -0.000001 5.070180 -2.459360 0.693655 6.456720 -0.000001 -0.000000 3.920930 -1.553460 0.399081 12.994200 -0.242716 4.980390 -86.843600 -10.712100 -73.475500 5.348090 -0.000007 -0.000001 -88.430000 -29.520100 -97.025000 24.328600 0.000019 0.000005 20.772500 -0.123561 -90.325800 22.291600 -0.000001 0.000005 22.758000 5.547540 -8.590630 12.994500 -0.242716 -4.980390 91.027400 -3.346910 -72.924700 -5.348130 -0.000001 -0.000004 -79.706600 -26.257100 -104.268000 -24.328900 0.000322 -0.000009 24.431300 3.180510 -83.037700 -22.291500 -0.000108 -0.000004 25.904000 5.363660 -1.791550 -2.192480 -6.469440 -0.000000 -175.653000 -6.264410 -3.088110 39.081100 -0.000007 -0.000012 -0.096612 0.236935 22.183500 40.985400 -0.000006 -0.000013 -0.137884 3.785310 -65.264300 11.754300 -0.000000 0.000003 -0.000029 -0.000350 -16.591200 -2.192510 6.469440 -0.000001 179.758000 13.232500 179.202000 -39.081100 -0.002282 -0.040193 -0.032015 0.102483 19.025200 -40.985400 0.000008 0.000006 3.142600 7.001770 -64.635400 -11.754300 -0.000006 -0.000006 -0.007780 -0.086230 -20.084200
0.000000 0.000000 0.000000 0.000000 0.000000 -0.000000 -0.684432 92.481000 -1.724750 88.107600 -0.216959 4.026780 15.735700 0.000005 -0.000001 85.807000 86.585800 -85.467000 8.984550 -0.406207 -0.000000 -0.954191 -0.525033 0.675304 16.377300 -0.000001 -0.000001 5.071900 -2.442840 0.685274 6.456720 -0.000001 -0.000000 3.918580 -1.520980 0.360351 12.994200 -0.242716 4.980390 -86.831600 -10.715000 -73.419800 5.348090 -0.000007 -0.000001 -88.498400 -29.507000 -97.186200 24.328600 0.000019 0.000005 20.755600 -0.065006 -90.171600 22.291600 -0.000001 0.000005 22.662100 5.547670 -8.596730 12.994500 -0.242716 -4.980390 91.020400 -3.325230 -72.929300 -5.348130 -0.000001 -0.000004 -79.623600 -26.293900 -104.325000 -24.328900 0.000322 -0.000009 24.318800 3.259610 -82.829500 -22.291500 -0.000108 -0.000004 25.848300 5.365970 -1.862360 -2.192480 -6.469440 -0.000000 -175.647000 -6.271160 -3.141060 39.081100 -0.000007 -0.000012 -0.096394 0.236634 22.163900 40.985400 -0.000006 -0.000013 -0.131320 3.788850 -65.241100 11.754300 -0.000000 0.000003 -0.000031 -0.000369 -16.591900 -2.192510 6.469440 -0.000001 179.797000 13.222700 179.173000 -39.081100 -0.002282 -0.040193 -0.029433 0.095251 18.977700 -40.985400 0.000008 0.000006 3.223630 6.971920 -64.621300 -11.754300 -0.000006 -0.000006 -0.007729 -0.085806 -20.066900
0.000000 0.000000 0.000000 0.000000 0.000000 -0.000000 -0.679773 92.487100 -1.737780 88.111100 -0.172581 3.970680 15.735700 0.000005 -0.000001 85.800200 86.575500 -85.464300 8.984550 -0.406207 -0.000000 -0.933871 -0.526964 0.667136 16.377300 -0.000001 -0.000001 5.060920 -2.425870 0.668229 6.456720 -0.000001 -0.000000 3.907870 -1.497910 0.360281 12.994200 -0.242716 4.980390 -86.814200 -10.728600 -73.353500 5.348090 -0.000007 -0.000001 -88.557500 -29.542300 -97.286800 24.328600 0.000019 0.000005 20.611800 -0.044668 -90.118800 22.291600 -0.000001 0.000005 22.454300 5.547990 -8.611570 12.994500 -0.242716 -4.980390 91.026300 -3.344190 -72.928300 -5.348130 -0.000001 -0.000004 -79.433100 -26.437400 -104.197000 -24.328900 0.000322 -0.000009 24.261500 3.261060 -82.807400 -22.291500 -0.000108 -0.000004 25.897700 5.364040 -1.803300 -2.192480 -6.469440 -0.000000 -175.658000 -6.257520 -3.186250 39.081100 -0.000007 -0.000012 -0.096539 0.237485 22.122200 40.985400 -0.000006 -0.000013 -0.124243 3.823260 -65.213800 11.754300 -0.000000 0.000003 -0.000030 -0.000364 -16.591800 -2.192510 6.469440 -0.000001 179.809000 13.276800 179.130000 -39.081100 -0.002282 -0.040193 -0.028627 0.093086 18.943900 -40.985400 0.000008 0.000006 3.263360 6.956970 -64.607300 -11.754300 -0.000006 -0.000006 -0.007796 -0.086361 -20.089600
0.000000 0.000000 0.000000 0.000000 0.000000 -0.000000 -0.684730 92.488800 -1.745360 88.095700 -0.165138 3.913070 15.735700 0.000005 -0.000001 85.867900 86.564500 -85.526500 8.984550 -0.406207 -0.000000 -0.911159 -0.520849 0.678373 16.377300 -0.000001 -0.000001 5.050330 -2.392200 0.622784 6.456720 -0.000001 -0.000000 3.938220 -1.497920 0.391413 12.994200 -0.242716 4.980390 -86.786900 -10.774600 -73.285300 5.348090 -0.000007 -0.000001 -88.498700 -29.678800 -97.112400 24.328600 0.000019 0.000005 20.451600 -0.077250 -90.207200 22.291600 -0.000001 0.000005 22.633600 5.546030 -8.520030 12.994500 -0.242716 -4.980390 91.002600 -3.267890 -72.933600 -5.348130 -0.000001 -0.000004 -78.938100 -26.714300 -103.904000 -24.328900 0.000322 -0.000009 23.967100 3.194990 -82.854800 -22.291500 -0.000108 -0.000004 25.996400 5.362760 -1.763890 -2.192480 -6.469440 -0.000000 -175.645000 -6.317200 -3.272810 39.081100 -0.000007 -0.000012 -0.095737 0.235313 22.139000 40.985400 -0.000006 -0.000013 -0.109479 3.885250 -65.201700 11.754300 -0.000000 0.000003 -0.000027 -0.000330 -16.590500 -2.192510 6.469440 -0.000001 179.839000 13.305200 179.065000 -39.081100 -0.002282 -0.040193 -0.028516 0.092843 18.928900 -40.985400 0.000008 0.000006 3.269590 6.970640 -64.587700 -11.754300 -0.000006 -0.000006 -0.007925 -0.087419 -20.132800
0.000000 0.000000 0.000000 0.000000 0.000000 -0.000000 -0.678647 92.494400 -1.761380 88.108100 -0.117497 3.899480 15.735700 0.000005 -0.000001 86.045900 86.534100 -85.706500 8.984550 -0.406207 -0.000000 -0.849230 -0.503405 0.674652 16.377300 -0.000001 -0.000001 5.035950 -2.389490 0.616254 6.456720 -0.000001 -0.000000 3.968990 -1.522240 0.377099 12.994200 -0.242716 4.980390 -86.786700 -10.800700 -73.322200 5.348090 -0.000007 -0.000001 -88.137100 -30.027300 -96.508800 24.328600 0.000019 0.000005 19.467000 -0.202667 -90.573700 22.291600 -0.000001 0.000005 22.849400 5.548680 -8.644090 12.994500 -0.242716 -4.980390 90.973100 -3.162730 -72.887800 -5.348130 -0.000001 -0.000004 -78.199500 -27.138800 -103.258000 -24.328900 0.000322 -0.000009 23.383100 2.957370 -83.196700 -22.291500 -0.000108 -0.000004 26.078100 5.366860 -1.889320 -2.192480 -6.469440 -0.000000 -175.669000 -6.183770 -3.280850 39.081100 -0.000007 -0.000012 -0.096065 0.236651 22.094000 40.985400 -0.000006 -0.000013 -0.123921 3.837000 -65.168100 11.754300 -0.000000 0.000003 -0.000037 -0.000438 -16.594600 -2.192510 6.469440 -0.000001 179.828000 13.328100 179.067000 -39.081100 -0.002282 -0.040193 -0.027573 0.090270 18.894200 -40.985400 0.000008 0.000006 3.268040 6.971890 -64.569600 -11.754300 -0.000006 -0.000006 -0.007947 -0.087602 -20.140300
0.000000 0.000000 0.000000 0.000000 0.000000 -0.000000 -0.683913 92.494700 -1.776700 88.126600 -0.097689 3.858850 15.735700 0.000005 -0.000001 85.968700 86.499900 -85.638000 8.984550 -0.406207 -0.000000 -0.781524 -0.516680 0.657480 16.377300 -0.000001 -0.000001 4.979850 -2.354460 0.595489 6.456720 -0.000001 -0.000000 4.056440 -1.481030 0.450549 12.994200 -0.242716 4.980390 -86.792100 -10.797800 -73.344500 5.348090 -0.000007 -0.000001 -87.238500 -30.694900 -95.187100 24.328600 0.000019 0.000005 17.594400 -0.460675 -91.454100 22.291600 -0.000001 0.000005 23.116300 5.547420 -8.585070 12.994500 -0.242716 -4.980390 90.916400 -2.975160 -72.870600 -5.348130 -0.000001 -0.000004 -77.067500 -27.700800 -102.076000 -24.328900 0.000322 -0.000009 22.837600 2.554890 -83.958900 -22.291500 -0.000108 -0.000004 26.254600 5.364300 -1.811570 -2.192480 -6.469440 -0.000000 -175.694000 -6.223930 -3.338630 39.081100 -0.000007 -0.000012 -0.095808 0.236046 22.091700 40.985400 -0.000006 -0.000013 -0.120686 3.839550 -65.148300 11.754300 -0.000000 0.000003 -0.000032 -0.000383 -16.592500 -2.192510 6.469440 -0.000001 179.824000 13.321200 179.003000 -39.081100 -0.002282 -0.040193 -0.028591 0.093123 18.917500 -40.985400 0.000008 0.000006 3.254580 6.932770 -64.568200 -11.754300 -0.000006 -0.000006 -0.007892 -0.087145 -20.121600
0.000000 0.000000 0.000000 0.000000 0.000000 -0.000000 -0.688458 92.503000 -1.799990 88.133900 -0.100122 3.782540 15.735700 0.000005 -0.000001 86.011600 86.473100 -85.681900 8.984550 -0.406207 -0.000000 -0.727766 -0.514950 0.655688 16.377300 -0.000001 -0.000001 4.883010 -2.342520 0.604962 6.456720 -0.000001 -0.000000 4.176660 -1.477150 0.438270 12.994200 -0.242716 4.980390 -86.837900 -10.662900 -73.375800 5.348090 -0.000007 -0.000001 -85.489100 -31.620200 -92.785800 24.328600 0.000019 0.000005 13.212300 -0.723688 -93.086500 22.291600 -0.000001 0.000005 23.315400 5.547310 -8.579730 12.994500 -0.242716 -4.980390 90.840100 -2.706170 -72.745200 -5.348130 -0.000001 -0.000004 -75.433400 -28.265700 -100.094000 -24.328900 0.000322 -0.000009 21.780200 1.892160 -85.278200 -22.291500 -0.000108 -0.000004 26.354400 5.361500 -1.725520 -2.192480 -6.469440 -0.000000 -175.723000 -6.194120 -3.409090 39.081100 -0.000007 -0.000012 -0.093466 0.230862 22.040800 40.985400 -0.000006 -0.000013 -0.122479 3.805420 -65.104800 11.754300 -0.000000 0.000003 -0.000029 -0.000350 -16.591200 -2.192510 6.469440 -0.000001 179.846000 13.314800 178.920000 -39.081100 -0.002282 -0.040193 -0.027770 0.090900 18.883800 -40.985400 0.000008 0.000006 3.297290 6.937600 -64.538000 -11.754300 -0.000006 -0.000006 -0.007766 -0.086115 -20.079500
